<svg width="26" height="25" viewBox="0 0 26 25" fill="none" xmlns="http://www.w3.org/2000/svg">
<path d="M11.8852 22.7273C11.8852 23.9848 10.8898 25 9.65669 25C8.4236 25 7.42822 23.9848 7.42822 22.7273C7.42822 21.4697 8.4236 20.4545 9.65669 20.4545C10.8898 20.4545 11.8852 21.4697 11.8852 22.7273ZM19.3134 20.4545C18.0803 20.4545 17.0849 21.4697 17.0849 22.7273C17.0849 23.9848 18.0803 25 19.3134 25C20.5465 25 21.5418 23.9848 21.5418 22.7273C21.5418 21.4697 20.5465 20.4545 19.3134 20.4545ZM25.9691 5.95455L22.9978 18.0758C22.9379 18.3228 22.7985 18.5421 22.6018 18.6987C22.4052 18.8553 22.1627 18.94 21.9132 18.9394H7.05681C6.52198 18.9394 6.06143 18.5455 5.95743 18L3.14956 2.27273H1.11423C0.505119 2.27273 0 1.75758 0 1.13636C0 0.515152 0.505119 0 1.11423 0H4.08552C4.62035 0 5.0809 0.393939 5.1849 0.939394L5.82372 4.54545H24.8845C25.0535 4.54618 25.2201 4.58587 25.3719 4.66155C25.5236 4.73723 25.6567 4.84695 25.761 4.98248C25.8653 5.11802 25.9382 5.27586 25.9742 5.4442C26.0103 5.61253 26.0085 5.787 25.9691 5.95455ZM23.4583 6.81818H6.22485L7.97791 16.6667H21.0367L23.4583 6.81818Z" fill="#4D4ADF"/>
</svg>
