<svg width="26" height="24" viewBox="0 0 26 24" fill="none" xmlns="http://www.w3.org/2000/svg">
<path d="M1.99652 9.31312L0.998262 10.4669L0 9.31312L0.998262 8.15938L1.99652 9.31312ZM26 22.3681C26 22.8009 25.8512 23.216 25.5864 23.522C25.3216 23.8281 24.9625 24 24.588 24C24.2136 24 23.8544 23.8281 23.5896 23.522C23.3248 23.216 23.1761 22.8009 23.1761 22.3681H26ZM8.05811 18.6262L0.998262 10.4669L2.99479 8.15938L10.0546 16.3188L8.05811 18.6262ZM0.998262 8.15938L8.05811 0L10.0546 2.30747L2.99479 10.4669L0.998262 8.15938ZM1.99652 7.68124H16.1162V10.945H1.99652V7.68124ZM26 19.1044V22.3681H23.1761V19.1044H26ZM16.1162 7.68124C18.7376 7.68124 21.2515 8.88475 23.1051 11.027C24.9587 13.1693 26 16.0748 26 19.1044H23.1761C23.1761 16.9404 22.4323 14.865 21.1083 13.3348C19.7843 11.8046 17.9886 10.945 16.1162 10.945V7.68124Z" fill="#4D4ADF"/>
</svg>
