<svg width="37" height="24" viewBox="0 0 37 24" fill="none" xmlns="http://www.w3.org/2000/svg">
<path fill-rule="evenodd" clip-rule="evenodd" d="M36.8 12C36.8 11.5849 36.6124 11.1868 36.2785 10.8932C35.9445 10.5997 35.4916 10.4348 35.0194 10.4348H1.78065C1.30839 10.4348 0.855474 10.5997 0.521539 10.8932C0.187603 11.1868 0 11.5849 0 12C0 12.4151 0.187603 12.8132 0.521539 13.1068C0.855474 13.4003 1.30839 13.5652 1.78065 13.5652H35.0194C35.4916 13.5652 35.9445 13.4003 36.2785 13.1068C36.6124 12.8132 36.8 12.4151 36.8 12ZM36.8 1.56522C36.8 1.1501 36.6124 0.751977 36.2785 0.458441C35.9445 0.164906 35.4916 0 35.0194 0H1.78065C1.30839 0 0.855474 0.164906 0.521539 0.458441C0.187603 0.751977 0 1.1501 0 1.56522C0 1.98034 0.187603 2.37846 0.521539 2.67199C0.855474 2.96553 1.30839 3.13043 1.78065 3.13043H35.0194C35.4916 3.13043 35.9445 2.96553 36.2785 2.67199C36.6124 2.37846 36.8 1.98034 36.8 1.56522ZM36.8 22.4348C36.8 22.0197 36.6124 21.6215 36.2785 21.328C35.9445 21.0345 35.4916 20.8696 35.0194 20.8696H1.78065C1.30839 20.8696 0.855474 21.0345 0.521539 21.328C0.187603 21.6215 0 22.0197 0 22.4348C0 22.8499 0.187603 23.248 0.521539 23.5416C0.855474 23.8351 1.30839 24 1.78065 24H35.0194C35.4916 24 35.9445 23.8351 36.2785 23.5416C36.6124 23.248 36.8 22.8499 36.8 22.4348Z" fill="#4D4ADF"/>
</svg>
